<svg width="30" height="30" viewBox="0 0 30 30" fill="none" xmlns="http://www.w3.org/2000/svg">
<g id="fi_16116541">
<g id="Group">
<path id="Vector" fill-rule="evenodd" clip-rule="evenodd" d="M20.7242 9.90145L9.89683 20.7289L8.96875 19.8008L19.7962 8.97338L20.7242 9.90145Z" fill="#07000E"/>
<path id="Vector_2" fill-rule="evenodd" clip-rule="evenodd" d="M19.3254 9.43636C17.1428 11.6189 17.2787 15.3217 19.3254 17.3683L19.7894 17.8324L20.7175 16.9043L20.2534 16.4403C18.6995 14.8863 18.6031 12.0148 20.2534 10.3644L20.7172 9.90065L19.7892 8.97257L19.3254 9.43636Z" fill="#07000E"/>
<path id="Vector_3" fill-rule="evenodd" clip-rule="evenodd" d="M20.2554 10.3586C18.0729 12.5411 14.3701 12.4052 12.3234 10.3586L11.8594 9.89453L12.7875 8.96645L13.2515 9.43049C14.8055 10.9845 17.677 11.0809 19.3273 9.43052L19.7911 8.96673L20.7192 9.89481L20.2554 10.3586Z" fill="#07000E"/>
</g>
</g>
</svg>
