<svg width="82" height="82" viewBox="0 0 82 82" fill="none" xmlns="http://www.w3.org/2000/svg">
<g clip-path="url(#clip0_6345_405)">
<path opacity="0.1" d="M40.9458 82.0048C63.4689 82.0048 81.7275 63.7462 81.7275 41.2231C81.7275 18.7 63.4689 0.441406 40.9458 0.441406C18.4226 0.441406 0.164063 18.7 0.164063 41.2231C0.164063 63.7462 18.4226 82.0048 40.9458 82.0048Z" fill="white"/>
<path d="M39.3512 35.2532H41.7408C42.1806 35.2532 42.5373 34.8965 42.5373 34.4567C42.5373 34.0168 42.1806 33.6602 41.7408 33.6602H39.3512C38.9114 33.6602 38.5547 34.0168 38.5547 34.4567C38.5547 34.8965 38.9114 35.2532 39.3512 35.2532Z" fill="white"/>
<path d="M55.2835 56.7622H52.0974V34.3798C52.0974 32.6669 50.7039 31.2734 48.991 31.2734L32.1046 31.2734C30.3918 31.2734 28.9982 32.6669 28.9982 34.3798V56.7622H25.8121C25.3723 56.7622 25.0156 57.1188 25.0156 57.5587C25.0156 57.9985 25.3723 58.3552 25.8121 58.3552H55.2835C55.7233 58.3552 56.08 57.9985 56.08 57.5587C56.08 57.1188 55.7233 56.7622 55.2835 56.7622ZM30.5913 34.3798C30.5913 33.5451 31.2704 32.8665 32.1046 32.8665H48.991C49.8253 32.8665 50.5043 33.5452 50.5043 34.3798V56.7622H48.9113V36.8491C48.9113 36.4093 48.5546 36.0526 48.1148 36.0526H32.9809C32.541 36.0526 32.1844 36.4093 32.1844 36.8491V56.7622H30.5913V34.3798ZM47.3182 56.7622H33.7774V37.6457H47.3182V56.7622Z" fill="white"/>
<path d="M36.1715 26.4915C36.6114 26.4915 36.968 26.1349 36.968 25.695C36.968 25.2551 36.6114 24.8984 36.1715 24.8984C35.7316 24.8984 35.375 25.2551 35.375 25.695C35.375 26.1349 35.7316 26.4915 36.1715 26.4915Z" fill="white"/>
<path d="M44.9371 28.0891C45.377 28.0891 45.7337 27.7325 45.7337 27.2926C45.7337 26.8527 45.377 26.4961 44.9371 26.4961C44.4972 26.4961 44.1406 26.8527 44.1406 27.2926C44.1406 27.7325 44.4972 28.0891 44.9371 28.0891Z" fill="white"/>
<path d="M56.0856 39.2376C56.5255 39.2376 56.8821 38.881 56.8821 38.441C56.8821 38.0011 56.5255 37.6445 56.0856 37.6445C55.6457 37.6445 55.2891 38.0011 55.2891 38.441C55.2891 38.881 55.6457 39.2376 56.0856 39.2376Z" fill="white"/>
<path d="M25.0153 44.8118C25.4552 44.8118 25.8118 44.4552 25.8118 44.0153C25.8118 43.5754 25.4552 43.2188 25.0153 43.2188C24.5754 43.2188 24.2188 43.5754 24.2188 44.0153C24.2188 44.4552 24.5754 44.8118 25.0153 44.8118Z" fill="white"/>
<path d="M36.1641 40.0312H37.7571V41.6243H36.1641V40.0312Z" fill="white"/>
<path d="M38.5625 40.0352H40.1555V41.6282H38.5625V40.0352Z" fill="white"/>
<path d="M40.9453 40.0352H42.5383V41.6282H40.9453V40.0352Z" fill="white"/>
<path d="M43.3438 40.0352H44.9368V41.6282H43.3438V40.0352Z" fill="white"/>
<path d="M36.1719 42.4219H37.7649V44.0149H36.1719V42.4219Z" fill="white"/>
<path d="M38.5547 42.4258H40.1477V44.0188H38.5547V42.4258Z" fill="white"/>
<path d="M40.9531 42.4258H42.5462V44.0188H40.9531V42.4258Z" fill="white"/>
<path d="M43.3359 42.4219H44.929V44.0149H43.3359V42.4219Z" fill="white"/>
<path d="M36.1719 44.8125H37.7649V46.4055H36.1719V44.8125Z" fill="white"/>
<path d="M38.5625 44.8125H40.1555V46.4055H38.5625V44.8125Z" fill="white"/>
<path d="M40.9531 44.8164H42.5462V46.4094H40.9531V44.8164Z" fill="white"/>
<path d="M43.3359 44.8125H44.929V46.4055H43.3359V44.8125Z" fill="white"/>
<path d="M36.1641 47.2031H37.7571V48.7962H36.1641V47.2031Z" fill="white"/>
<path d="M38.5625 47.2031H40.1555V48.7962H38.5625V47.2031Z" fill="white"/>
<path d="M40.9453 47.2031H42.5383V48.7962H40.9453V47.2031Z" fill="white"/>
<path d="M43.3438 47.2031H44.9368V48.7962H43.3438V47.2031Z" fill="white"/>
<path d="M36.1719 49.5898H37.7649V51.1829H36.1719V49.5898Z" fill="white"/>
<path d="M38.5547 49.5938H40.1477V51.1868H38.5547V49.5938Z" fill="white"/>
<path d="M40.9531 49.5938H42.5462V51.1868H40.9531V49.5938Z" fill="white"/>
<path d="M43.3359 49.5898H44.929V51.1829H43.3359V49.5898Z" fill="white"/>
<path d="M27.4041 34.4599C27.4041 33.1422 26.3322 32.0703 25.0146 32.0703C23.6969 32.0703 22.625 33.1422 22.625 34.4599C22.625 35.7771 23.6969 36.8494 25.0146 36.8494C26.3322 36.8494 27.4041 35.7771 27.4041 34.4599ZM24.218 34.4599C24.218 34.0207 24.575 33.6633 25.0146 33.6633C25.4541 33.6633 25.8111 34.0207 25.8111 34.4599C25.8111 34.899 25.4541 35.2564 25.0146 35.2564C24.575 35.2564 24.218 34.899 24.218 34.4599Z" fill="white"/>
<path d="M56.8817 45.6094C55.5641 45.6094 54.4922 46.6812 54.4922 47.9989C54.4922 49.3166 55.5641 50.3885 56.8817 50.3885C58.1994 50.3885 59.2713 49.3166 59.2713 47.9989C59.2713 46.6812 58.1994 45.6094 56.8817 45.6094ZM56.8817 48.7954C56.4426 48.7954 56.0852 48.4381 56.0852 47.9989C56.0852 47.5597 56.4426 47.2024 56.8817 47.2024C57.3209 47.2024 57.6783 47.5597 57.6783 47.9989C57.6783 48.4381 57.3209 48.7954 56.8817 48.7954Z" fill="white"/>
<path d="M54.0925 29.6811C55.6295 29.6811 56.8803 28.4303 56.8803 26.8933C56.8803 25.3558 55.6295 24.1055 54.0925 24.1055C52.5555 24.1055 51.3047 25.3558 51.3047 26.8933C51.3047 28.4303 52.5555 29.6811 54.0925 29.6811ZM54.0925 25.6985C54.7513 25.6985 55.2873 26.2345 55.2873 26.8933C55.2873 27.5521 54.7513 28.0881 54.0925 28.0881C53.4337 28.0881 52.8977 27.5521 52.8977 26.8933C52.8977 26.2344 53.4337 25.6985 54.0925 25.6985Z" fill="white"/>
</g>
<defs>
<clipPath id="clip0_6345_405">
<rect width="81.5634" height="81.5634" fill="white" transform="translate(0.171875 0.445312)"/>
</clipPath>
</defs>
</svg>
