<svg width="82" height="82" viewBox="0 0 82 82" fill="none" xmlns="http://www.w3.org/2000/svg">
<g clip-path="url(#clip0_6344_288)">
<path opacity="0.1" d="M40.8286 82.0126C63.3517 82.0126 81.6103 63.754 81.6103 41.2309C81.6103 18.7078 63.3517 0.449219 40.8286 0.449219C18.3055 0.449219 0.046875 18.7078 0.046875 41.2309C0.046875 63.754 18.3055 82.0126 40.8286 82.0126Z" fill="white"/>
<path d="M56.7589 22.1094L24.8981 22.1094C24.4582 22.1094 24.1016 22.4661 24.1016 22.9059V59.5459C24.1016 59.9857 24.4582 60.3424 24.8981 60.3424L56.7589 60.3424C57.1988 60.3424 57.5555 59.9857 57.5555 59.5459V22.9059C57.5555 22.466 57.1988 22.1094 56.7589 22.1094ZM55.9624 23.7024V25.2954L38.439 25.2954C37.9991 25.2954 37.6424 25.6521 37.6424 26.092C37.6424 26.5319 37.9991 26.8885 38.439 26.8885L55.9624 26.8885V28.4815L25.6946 28.4815V23.7024L55.9624 23.7024ZM25.6946 58.7493V30.0746L55.9624 30.0746V58.7493L25.6946 58.7493Z" fill="white"/>
<path d="M53.5743 31.668L28.0856 31.668C27.6457 31.668 27.2891 32.0246 27.2891 32.4645V56.3602C27.2891 56.8 27.6457 57.1567 28.0856 57.1567H53.5743C54.0141 57.1567 54.3708 56.8 54.3708 56.3602V32.4645C54.3708 32.0246 54.0141 31.668 53.5743 31.668ZM52.7778 55.5636H28.8821V33.261H52.7778V55.5636Z" fill="white"/>
<path d="M29.6719 34.0547H31.2649V35.6477H29.6719V34.0547Z" fill="white"/>
<path d="M32.0703 34.0586H49.5938V35.6516H32.0703V34.0586Z" fill="white"/>
<path d="M32.0625 53.1758H49.586V54.7688H32.0625V53.1758Z" fill="white"/>
<path d="M27.2891 25.2969H28.8821V26.8899H27.2891V25.2969Z" fill="white"/>
<path d="M29.6719 25.2969H31.2649V26.8899H29.6719V25.2969Z" fill="white"/>
<path d="M32.0703 25.293H33.6633V26.886H32.0703V25.293Z" fill="white"/>
<path d="M29.6797 53.1758H31.2727V54.7688H29.6797V53.1758Z" fill="white"/>
<path d="M29.6797 36.4453H31.2727V52.3757H29.6797V36.4453Z" fill="white"/>
<path d="M50.3906 34.0547H51.9837V35.6477H50.3906V34.0547Z" fill="white"/>
<path d="M50.3906 53.1719H51.9837V54.7649H50.3906V53.1719Z" fill="white"/>
<path d="M50.3828 36.4453H51.9758V52.3757H50.3828V36.4453Z" fill="white"/>
<path d="M33.6562 44.4108C33.6562 48.3635 36.8723 51.5795 40.8249 51.5795C44.7775 51.5795 47.9936 48.3635 47.9936 44.4108C47.9936 40.4578 44.7775 37.2422 40.8249 37.2422C36.8723 37.2422 33.6562 40.4578 33.6562 44.4108ZM46.4005 44.4108C46.4005 47.4854 43.8994 49.9865 40.8249 49.9865C37.7504 49.9865 35.2493 47.4854 35.2493 44.4108C35.2493 41.3363 37.7505 38.8352 40.8249 38.8352C43.8994 38.8352 46.4005 41.3363 46.4005 44.4108Z" fill="white"/>
<path d="M38.0159 44.5056C37.7048 44.1949 37.2008 44.1949 36.8896 44.5056C36.5785 44.8167 36.5785 45.3211 36.8896 45.6323L39.1422 47.885C39.4533 48.196 39.9578 48.196 40.269 47.885L44.7746 43.3792C45.0858 43.0682 45.0858 42.5638 44.7746 42.2529C44.4639 41.9418 43.9595 41.9418 43.6483 42.2529L39.7057 46.1954L38.0159 44.5056Z" fill="white"/>
</g>
<defs>
<clipPath id="clip0_6344_288">
<rect width="81.5634" height="81.5634" fill="white" transform="translate(0.046875 0.445312)"/>
</clipPath>
</defs>
</svg>
