<svg width="40" height="40" viewBox="0 0 40 40" fill="none" xmlns="http://www.w3.org/2000/svg">
<g id="001-website">
<g id="_x33_01_x2C__Message_x2C__ready_x2C__success_x2C__web_x2C__website">
<g id="Group">
<path id="Vector" d="M35.6252 1.25H4.375C3.94359 1.25 3.59375 1.59984 3.59375 2.03125V37.9689C3.59375 38.4003 3.94359 38.7502 4.375 38.7502H35.6252C36.0566 38.7502 36.4064 38.4003 36.4064 37.9689V2.03125C36.4064 1.59977 36.0566 1.25 35.6252 1.25ZM34.8439 2.8125V4.375H17.6563C17.2249 4.375 16.8751 4.72484 16.8751 5.15625C16.8751 5.58773 17.2249 5.9375 17.6563 5.9375H34.8439V7.5H5.15625V2.8125H34.8439ZM5.15625 37.1877V9.0625H34.8439V37.1877H5.15625Z" fill="#573DB8"/>
<path id="Vector_2" d="M32.5002 10.625H7.5C7.06859 10.625 6.71875 10.9748 6.71875 11.4062V34.8439C6.71875 35.2753 7.06859 35.6252 7.5 35.6252H32.5002C32.9316 35.6252 33.2814 35.2753 33.2814 34.8439V11.4062C33.2814 10.9748 32.9316 10.625 32.5002 10.625ZM31.7189 34.0626H8.28125V12.1875H31.7189V34.0626Z" fill="#573DB8"/>
<path id="Vector_3" d="M9.0625 12.9688H10.625V14.5312H9.0625V12.9688Z" fill="#573DB8"/>
<path id="Vector_4" d="M11.4062 12.9688H28.5938V14.5312H11.4062V12.9688Z" fill="#573DB8"/>
<path id="Vector_5" d="M11.4062 31.7188H28.5938V33.2812H11.4062V31.7188Z" fill="#573DB8"/>
<path id="Vector_6" d="M6.71875 4.375H8.28125V5.9375H6.71875V4.375Z" fill="#573DB8"/>
<path id="Vector_7" d="M9.0625 4.375H10.625V5.9375H9.0625V4.375Z" fill="#573DB8"/>
<path id="Vector_8" d="M11.4062 4.375H12.9688V5.9375H11.4062V4.375Z" fill="#573DB8"/>
<path id="Vector_9" d="M9.0625 31.7188H10.625V33.2812H9.0625V31.7188Z" fill="#573DB8"/>
<path id="Vector_10" d="M9.0625 15.3125H10.625V30.9375H9.0625V15.3125Z" fill="#573DB8"/>
<path id="Vector_11" d="M29.375 12.9688H30.9375V14.5312H29.375V12.9688Z" fill="#573DB8"/>
<path id="Vector_12" d="M29.375 31.7188H30.9375V33.2812H29.375V31.7188Z" fill="#573DB8"/>
<path id="Vector_13" d="M29.375 15.3125H30.9375V30.9375H29.375V15.3125Z" fill="#573DB8"/>
<path id="Vector_14" d="M12.9688 23.125C12.9688 27.0019 16.1231 30.1562 20 30.1562C23.8769 30.1562 27.0313 27.0019 27.0313 23.125C27.0313 19.2477 23.8769 16.0938 20 16.0938C16.1231 16.0938 12.9688 19.2477 12.9688 23.125ZM25.4688 23.125C25.4688 26.1406 23.0155 28.5938 20 28.5938C16.9845 28.5938 14.5312 26.1406 14.5312 23.125C14.5312 20.1094 16.9845 17.6562 20 17.6562C23.0155 17.6562 25.4688 20.1094 25.4688 23.125Z" fill="#573DB8"/>
<path id="Vector_15" d="M17.2399 23.2196C16.9347 22.915 16.4404 22.915 16.1351 23.2196C15.83 23.5248 15.83 24.0196 16.1351 24.3248L18.3446 26.5343C18.6497 26.8393 19.1445 26.8393 19.4497 26.5343L23.869 22.1149C24.1742 21.8098 24.1742 21.315 23.869 21.0101C23.5643 20.705 23.0695 20.705 22.7643 21.0101L18.8972 24.8771L17.2399 23.2196Z" fill="#573DB8"/>
</g>
</g>
</g>
</svg>
