<svg width="40" height="40" viewBox="0 0 40 40" fill="none" xmlns="http://www.w3.org/2000/svg">
<g id="015-access">
<g id="_x33_16_x2C__Access_x2C__code_x2C__mobile_x2C__pin_x2C__pin_code">
<g id="Group">
<path id="Vector" d="M18.4375 14.1406H20.7812C21.2127 14.1406 21.5625 13.7908 21.5625 13.3594C21.5625 12.928 21.2127 12.5781 20.7812 12.5781H18.4375C18.0061 12.5781 17.6562 12.928 17.6562 13.3594C17.6562 13.7908 18.0061 14.1406 18.4375 14.1406Z" fill="#573DB8"/>
<path id="Vector_2" d="M34.0627 35.2345H30.9377V13.2812C30.9377 11.6012 29.5709 10.2344 27.8908 10.2344H11.3281C9.64813 10.2344 8.28125 11.6012 8.28125 13.2812V35.2345H5.15625C4.72484 35.2345 4.375 35.5844 4.375 36.0158C4.375 36.4472 4.72484 36.797 5.15625 36.797H34.0627C34.4941 36.797 34.8439 36.4472 34.8439 36.0158C34.8439 35.5844 34.4941 35.2345 34.0627 35.2345ZM9.84383 13.2812C9.84383 12.4625 10.5098 11.7969 11.3281 11.7969H27.8908C28.7091 11.7969 29.3752 12.4626 29.3752 13.2812V35.2345H27.8127V15.7032C27.8127 15.2718 27.4627 14.922 27.0314 14.922H12.1876C11.7562 14.922 11.4063 15.2718 11.4063 15.7032V35.2345H9.84383V13.2812ZM26.2501 35.2345H12.9688V16.4845H26.2501V35.2345Z" fill="#573DB8"/>
<path id="Vector_3" d="M15.3125 5.54688C15.744 5.54688 16.0938 5.1971 16.0938 4.76562C16.0938 4.33415 15.744 3.98438 15.3125 3.98438C14.881 3.98438 14.5312 4.33415 14.5312 4.76562C14.5312 5.1971 14.881 5.54688 15.3125 5.54688Z" fill="#573DB8"/>
<path id="Vector_4" d="M23.9062 7.10938C24.3377 7.10938 24.6875 6.7596 24.6875 6.32812C24.6875 5.89665 24.3377 5.54688 23.9062 5.54688C23.4748 5.54688 23.125 5.89665 23.125 6.32812C23.125 6.7596 23.4748 7.10938 23.9062 7.10938Z" fill="#573DB8"/>
<path id="Vector_5" d="M34.8438 18.0469C35.2752 18.0469 35.625 17.6971 35.625 17.2656C35.625 16.8342 35.2752 16.4844 34.8438 16.4844C34.4123 16.4844 34.0625 16.8342 34.0625 17.2656C34.0625 17.6971 34.4123 18.0469 34.8438 18.0469Z" fill="#573DB8"/>
<path id="Vector_6" d="M4.375 23.5156C4.80647 23.5156 5.15625 23.1658 5.15625 22.7344C5.15625 22.3029 4.80647 21.9531 4.375 21.9531C3.94353 21.9531 3.59375 22.3029 3.59375 22.7344C3.59375 23.1658 3.94353 23.5156 4.375 23.5156Z" fill="#573DB8"/>
<path id="Vector_7" d="M15.3125 18.8281H16.875V20.3906H15.3125V18.8281Z" fill="#573DB8"/>
<path id="Vector_8" d="M17.6562 18.8281H19.2188V20.3906H17.6562V18.8281Z" fill="#573DB8"/>
<path id="Vector_9" d="M20 18.8281H21.5625V20.3906H20V18.8281Z" fill="#573DB8"/>
<path id="Vector_10" d="M22.3438 18.8281H23.9062V20.3906H22.3438V18.8281Z" fill="#573DB8"/>
<path id="Vector_11" d="M15.3125 21.1719H16.875V22.7344H15.3125V21.1719Z" fill="#573DB8"/>
<path id="Vector_12" d="M17.6562 21.1719H19.2188V22.7344H17.6562V21.1719Z" fill="#573DB8"/>
<path id="Vector_13" d="M20 21.1719H21.5625V22.7344H20V21.1719Z" fill="#573DB8"/>
<path id="Vector_14" d="M22.3438 21.1719H23.9062V22.7344H22.3438V21.1719Z" fill="#573DB8"/>
<path id="Vector_15" d="M15.3125 23.5156H16.875V25.0781H15.3125V23.5156Z" fill="#573DB8"/>
<path id="Vector_16" d="M17.6562 23.5156H19.2188V25.0781H17.6562V23.5156Z" fill="#573DB8"/>
<path id="Vector_17" d="M20 23.5156H21.5625V25.0781H20V23.5156Z" fill="#573DB8"/>
<path id="Vector_18" d="M22.3438 23.5156H23.9062V25.0781H22.3438V23.5156Z" fill="#573DB8"/>
<path id="Vector_19" d="M15.3125 25.8594H16.875V27.4219H15.3125V25.8594Z" fill="#573DB8"/>
<path id="Vector_20" d="M17.6562 25.8594H19.2188V27.4219H17.6562V25.8594Z" fill="#573DB8"/>
<path id="Vector_21" d="M20 25.8594H21.5625V27.4219H20V25.8594Z" fill="#573DB8"/>
<path id="Vector_22" d="M22.3438 25.8594H23.9062V27.4219H22.3438V25.8594Z" fill="#573DB8"/>
<path id="Vector_23" d="M15.3125 28.2031H16.875V29.7656H15.3125V28.2031Z" fill="#573DB8"/>
<path id="Vector_24" d="M17.6562 28.2031H19.2188V29.7656H17.6562V28.2031Z" fill="#573DB8"/>
<path id="Vector_25" d="M20 28.2031H21.5625V29.7656H20V28.2031Z" fill="#573DB8"/>
<path id="Vector_26" d="M22.3438 28.2031H23.9062V29.7656H22.3438V28.2031Z" fill="#573DB8"/>
<path id="Vector_27" d="M6.71875 13.3594C6.71875 12.067 5.66742 11.0156 4.375 11.0156C3.08258 11.0156 2.03125 12.067 2.03125 13.3594C2.03125 14.6514 3.08258 15.7031 4.375 15.7031C5.66742 15.7031 6.71875 14.6514 6.71875 13.3594ZM3.59375 13.3594C3.59375 12.9287 3.94391 12.5781 4.375 12.5781C4.80609 12.5781 5.15625 12.9287 5.15625 13.3594C5.15625 13.7901 4.80609 14.1406 4.375 14.1406C3.94391 14.1406 3.59375 13.7901 3.59375 13.3594Z" fill="#573DB8"/>
<path id="Vector_28" d="M35.625 24.2969C34.3326 24.2969 33.2812 25.3482 33.2812 26.6406C33.2812 27.933 34.3326 28.9844 35.625 28.9844C36.9174 28.9844 37.9688 27.933 37.9688 26.6406C37.9688 25.3482 36.9174 24.2969 35.625 24.2969ZM35.625 27.4219C35.1943 27.4219 34.8438 27.0714 34.8438 26.6406C34.8438 26.2098 35.1943 25.8594 35.625 25.8594C36.0557 25.8594 36.4062 26.2098 36.4062 26.6406C36.4062 27.0714 36.0557 27.4219 35.625 27.4219Z" fill="#573DB8"/>
<path id="Vector_29" d="M32.8906 8.67188C34.3982 8.67188 35.625 7.44508 35.625 5.9375C35.625 4.42953 34.3982 3.20312 32.8906 3.20312C31.383 3.20312 30.1562 4.42953 30.1562 5.9375C30.1562 7.44508 31.383 8.67188 32.8906 8.67188ZM32.8906 4.76562C33.5368 4.76562 34.0625 5.29133 34.0625 5.9375C34.0625 6.58367 33.5368 7.10938 32.8906 7.10938C32.2445 7.10938 31.7188 6.58367 31.7188 5.9375C31.7188 5.29125 32.2445 4.76562 32.8906 4.76562Z" fill="#573DB8"/>
</g>
</g>
</g>
</svg>
